<svg viewBox="0 0 331.055 118.116" ><g><path d="M 90.786 64.12 A 0.693 0.693 0 0 0 90.821 64.063 A 1.722 1.722 0 0 0 91.114 63.086 A 1.752 1.752 0 0 0 90.947 62.338 A 2.213 2.213 0 0 0 90.601 61.817 A 1.655 1.655 0 0 0 89.913 61.339 A 1.906 1.906 0 0 0 89.258 61.231 A 2.276 2.276 0 0 0 89.114 61.235 Q 88.58 61.269 88.188 61.558 A 1.912 1.912 0 0 0 87.696 62.11 A 0.05 0.05 0 0 1 87.688 62.127 Q 87.614 62.263 86.768 63.355 A 9.846 9.846 0 0 1 86.018 64.206 Q 85.586 64.646 85.042 65.115 A 24.214 24.214 0 0 1 83.96 65.991 A 14.54 14.54 0 0 1 83.512 66.322 Q 82.606 66.962 81.498 67.547 A 25.998 25.998 0 0 1 79.224 68.604 A 13.099 13.099 0 0 1 78.816 68.763 Q 77.372 69.3 75.672 69.552 A 21.892 21.892 0 0 1 72.461 69.776 Q 68.018 69.776 64.038 68.579 A 50.582 50.582 0 0 1 56.324 65.552 A 92.501 92.501 0 0 1 48.975 61.524 Q 45.362 59.326 41.651 57.373 A 16.501 16.501 0 0 0 41.978 56.477 A 21.078 21.078 0 0 0 42.359 55.2 A 24.044 24.044 0 0 0 42.871 52.759 Q 43.067 51.514 43.164 50.318 A 31.283 31.283 0 0 0 43.231 49.304 A 24.721 24.721 0 0 0 43.262 48.096 Q 43.262 46.338 43.189 44.654 A 655.705 655.705 0 0 1 43.116 42.914 A 787.737 787.737 0 0 1 43.042 41.065 A 561.676 561.676 0 0 1 42.969 39.063 A 742.452 742.452 0 0 1 42.896 36.865 A 116.659 116.659 0 0 1 42.877 36.206 Q 42.823 34.145 42.823 31.543 A 66.906 66.906 0 0 1 43.031 26.161 A 50.941 50.941 0 0 1 43.872 20.093 A 39.033 39.033 0 0 1 43.88 20.055 Q 44.93 14.928 47.119 11.304 A 18.885 18.885 0 0 1 47.687 10.42 A 15.788 15.788 0 0 1 52.686 5.664 A 13.752 13.752 0 0 1 56.61 4.102 A 17.706 17.706 0 0 1 60.645 3.662 Q 63.086 3.662 65.308 4.419 A 13.941 13.941 0 0 1 65.787 4.592 A 12.131 12.131 0 0 1 69.214 6.568 A 10.428 10.428 0 0 1 71.9 9.937 A 8.969 8.969 0 0 1 72.529 11.552 A 10.266 10.266 0 0 1 72.901 14.356 A 11.597 11.597 0 0 1 72.774 16.104 A 8.823 8.823 0 0 1 71.997 18.653 A 11.484 11.484 0 0 1 71.703 19.218 A 9.835 9.835 0 0 1 69.678 21.778 A 3.611 3.611 0 0 0 69.019 22.534 A 1.615 1.615 0 0 0 68.804 23.047 A 2.133 2.133 0 0 0 68.75 23.535 A 2.021 2.021 0 0 0 68.803 24.011 A 1.251 1.251 0 0 0 69.287 24.756 A 2.023 2.023 0 0 0 70.508 25.147 A 2.998 2.998 0 0 0 72.022 24.726 A 4.405 4.405 0 0 0 72.827 24.121 A 8.78 8.78 0 0 0 73.865 22.956 A 11.579 11.579 0 0 0 74.781 21.509 A 14.071 14.071 0 0 0 75.188 20.689 A 15.916 15.916 0 0 0 76.123 18.018 A 16.651 16.651 0 0 0 76.381 16.842 A 13.977 13.977 0 0 0 76.612 14.356 A 15.284 15.284 0 0 0 76.566 13.168 A 12.75 12.75 0 0 0 75.318 8.496 Q 74.024 5.86 71.802 3.955 A 15.952 15.952 0 0 0 66.675 1.026 Q 63.77 0 60.547 0 A 22.347 22.347 0 0 0 57.35 0.222 A 17.324 17.324 0 0 0 51.221 2.271 A 18.64 18.64 0 0 0 49.301 3.52 A 19.831 19.831 0 0 0 44.532 8.643 A 26.994 26.994 0 0 0 42.144 13.23 A 35.803 35.803 0 0 0 40.479 18.482 A 48.033 48.033 0 0 0 39.497 24.134 A 61.951 61.951 0 0 0 39.112 31.201 Q 39.112 33.093 39.14 34.652 A 114.528 114.528 0 0 0 39.185 36.402 A 632.297 632.297 0 0 0 39.19 36.541 Q 39.225 37.585 39.26 38.526 A 387.577 387.577 0 0 0 39.331 40.308 A 471.57 471.57 0 0 0 39.405 41.974 A 366.674 366.674 0 0 0 39.478 43.506 A 55.444 55.444 0 0 1 39.51 44.248 A 63.907 63.907 0 0 1 39.551 46.582 A 75.732 75.732 0 0 1 39.55 47.055 Q 39.545 47.751 39.528 48.374 A 42.491 42.491 0 0 1 39.478 49.585 A 26.219 26.219 0 0 1 39.38 50.818 A 19.495 19.495 0 0 1 39.234 51.929 A 27.041 27.041 0 0 1 39.075 52.815 A 21.274 21.274 0 0 1 38.843 53.858 A 23.85 23.85 0 0 1 38.33 55.615 A 82.954 82.954 0 0 0 37.071 55.013 A 96.438 96.438 0 0 0 33.643 53.491 Q 31.153 52.442 28.516 51.612 Q 25.879 50.781 23.12 50.293 A 31.739 31.739 0 0 0 17.578 49.805 A 29.046 29.046 0 0 0 15.739 49.862 A 24.601 24.601 0 0 0 10.645 50.708 A 21.202 21.202 0 0 0 8.439 51.455 A 16.836 16.836 0 0 0 5.054 53.272 A 14.17 14.17 0 0 0 4.834 53.429 A 12.242 12.242 0 0 0 1.343 57.3 A 10.072 10.072 0 0 0 0.579 58.994 A 11.001 11.001 0 0 0 0 62.598 A 11.399 11.399 0 0 0 0.234 64.968 A 8.033 8.033 0 0 0 1.416 67.822 A 11.009 11.009 0 0 0 5.054 71.216 A 14.971 14.971 0 0 0 6.495 71.953 A 16.989 16.989 0 0 0 10.034 73.072 A 27.246 27.246 0 0 0 15.479 73.633 Q 18.262 73.633 21.558 73.12 A 25.721 25.721 0 0 0 23.209 72.808 A 29.01 29.01 0 0 0 28.199 71.192 Q 31.543 69.776 34.644 67.261 A 21.588 21.588 0 0 0 37.395 64.576 A 27.326 27.326 0 0 0 40.137 60.742 A 247.771 247.771 0 0 1 47.803 65.137 Q 51.563 67.383 55.445 69.239 Q 59.326 71.094 63.526 72.29 A 29.847 29.847 0 0 0 65.951 72.872 A 33.97 33.97 0 0 0 72.51 73.487 A 24.932 24.932 0 0 0 74.921 73.374 A 19.61 19.61 0 0 0 78.125 72.803 A 28.589 28.589 0 0 0 80.104 72.195 A 22.737 22.737 0 0 0 82.691 71.118 A 22.066 22.066 0 0 0 84.361 70.205 A 17.108 17.108 0 0 0 86.206 68.921 A 36.143 36.143 0 0 0 86.616 68.588 Q 87.215 68.092 87.727 67.622 A 20.273 20.273 0 0 0 88.697 66.675 A 36.26 36.26 0 0 0 88.718 66.652 Q 89.392 65.944 89.854 65.382 A 11.499 11.499 0 0 0 90.235 64.893 Q 90.673 64.295 90.786 64.12 Z M 177.149 58.399 A 65.683 65.683 0 0 0 177.043 58.61 Q 176.872 58.956 176.553 59.607 A 920.339 920.339 0 0 0 176.343 60.034 A 31.851 31.851 0 0 1 175.837 61.02 Q 175.549 61.56 175.208 62.156 A 59.1 59.1 0 0 1 174.781 62.891 A 40.346 40.346 0 0 1 173.538 64.856 A 50.273 50.273 0 0 1 172.559 66.26 A 22.31 22.31 0 0 1 169.727 69.483 A 15.449 15.449 0 0 1 166.358 71.9 A 8.057 8.057 0 0 1 162.549 72.852 A 7.323 7.323 0 0 1 160.018 72.428 A 6.5 6.5 0 0 1 157.788 71.045 A 10.286 10.286 0 0 1 155.233 67.214 A 12.381 12.381 0 0 1 154.981 66.504 A 15.95 15.95 0 0 1 153.038 69.137 A 12.903 12.903 0 0 1 151.026 70.923 A 9.832 9.832 0 0 1 149.179 71.975 A 6.951 6.951 0 0 1 146.436 72.559 Q 144.629 72.559 143.164 71.9 Q 141.7 71.24 140.674 70.044 A 8.468 8.468 0 0 1 139.254 67.682 A 9.848 9.848 0 0 1 139.087 67.237 Q 138.526 65.625 138.526 63.721 A 19.112 19.112 0 0 1 138.81 60.349 A 14.442 14.442 0 0 1 139.82 57.007 A 16.963 16.963 0 0 1 141.499 54.04 A 14.001 14.001 0 0 1 143.116 52.149 Q 145.117 50.196 147.534 49.219 A 13.892 13.892 0 0 1 150.054 48.457 A 11.083 11.083 0 0 1 152.198 48.242 A 9.649 9.649 0 0 1 153.909 48.389 A 8.016 8.016 0 0 1 154.981 48.657 Q 156.072 49.014 156.892 49.425 A 9.375 9.375 0 0 1 157.154 49.561 Q 158.047 50.044 158.534 50.455 A 3.846 3.846 0 0 1 158.545 50.464 A 123.791 123.791 0 0 1 158.66 50.562 Q 159.04 50.885 159.082 50.928 A 2.555 2.555 0 0 1 159.417 51.426 A 1.803 1.803 0 0 1 159.619 52.246 A 1.807 1.807 0 0 1 159.117 53.503 A 2.349 2.349 0 0 1 159.082 53.54 Q 158.545 54.102 157.813 54.102 A 1.872 1.872 0 0 1 157.036 53.943 A 1.819 1.819 0 0 1 156.494 53.565 Q 156.415 53.485 156.172 53.291 A 18.894 18.894 0 0 0 156.055 53.198 A 3.702 3.702 0 0 0 155.771 52.998 Q 155.498 52.822 155.127 52.637 Q 154.583 52.365 153.848 52.156 A 10.598 10.598 0 0 0 153.736 52.124 A 5.976 5.976 0 0 0 152.875 51.959 Q 152.432 51.906 151.937 51.905 A 9.53 9.53 0 0 0 151.905 51.905 Q 150.391 51.905 148.682 52.588 A 8.869 8.869 0 0 0 146.098 54.199 A 10.551 10.551 0 0 0 145.557 54.712 A 10.848 10.848 0 0 0 143.986 56.769 A 13.977 13.977 0 0 0 143.189 58.325 A 10.869 10.869 0 0 0 142.449 60.841 Q 142.251 61.987 142.238 63.291 A 18.4 18.4 0 0 0 142.237 63.477 A 9.337 9.337 0 0 0 142.432 65.357 A 5.232 5.232 0 0 0 143.082 67.035 A 5.006 5.006 0 0 0 143.116 67.09 Q 143.604 67.871 144.434 68.36 A 3.378 3.378 0 0 0 145.426 68.741 Q 145.852 68.834 146.343 68.846 A 5.935 5.935 0 0 0 146.485 68.848 Q 147.364 68.848 148.511 68.262 A 6.296 6.296 0 0 0 149.694 67.467 Q 150.18 67.059 150.646 66.527 A 10.503 10.503 0 0 0 150.708 66.455 Q 151.691 65.312 152.503 63.612 A 18.414 18.414 0 0 0 152.613 63.379 Q 153.414 61.64 153.764 59.299 A 21.42 21.42 0 0 0 153.809 58.985 Q 153.907 58.301 154.444 57.837 Q 154.981 57.373 155.713 57.373 A 1.575 1.575 0 0 1 156.812 57.814 A 2.121 2.121 0 0 1 156.909 57.91 A 2.107 2.107 0 0 1 157.306 58.484 A 1.851 1.851 0 0 1 157.471 59.131 Q 157.508 59.841 157.603 60.995 A 153.047 153.047 0 0 0 157.666 61.743 A 16.008 16.008 0 0 0 158.326 65.088 A 8.522 8.522 0 0 0 159.266 67.153 A 7.602 7.602 0 0 0 159.864 67.969 A 3.351 3.351 0 0 0 162.098 69.154 A 4.803 4.803 0 0 0 162.696 69.19 A 4.554 4.554 0 0 0 164.494 68.81 A 5.649 5.649 0 0 0 165.015 68.555 A 10.066 10.066 0 0 0 166.43 67.599 A 12.624 12.624 0 0 0 167.261 66.87 A 18.337 18.337 0 0 0 168.854 65.131 A 21.288 21.288 0 0 0 169.361 64.478 A 34.46 34.46 0 0 0 171.192 61.768 A 39.433 39.433 0 0 0 172.153 60.097 A 32.944 32.944 0 0 0 172.657 59.131 A 157.138 157.138 0 0 0 173.105 58.227 Q 173.281 57.87 173.437 57.547 A 83.015 83.015 0 0 0 173.731 56.934 A 62.985 62.985 0 0 1 175.012 54.075 Q 176.501 50.977 177.857 49.243 A 10.22 10.22 0 0 1 178.85 48.136 Q 180.276 46.778 181.69 46.778 A 3.74 3.74 0 0 1 182.607 46.885 A 2.882 2.882 0 0 1 183.594 47.339 A 3.938 3.938 0 0 1 184.734 48.63 A 4.671 4.671 0 0 1 184.839 48.828 A 7.701 7.701 0 0 1 185.398 50.33 A 9.025 9.025 0 0 1 185.523 50.879 Q 185.742 52.002 185.742 53.174 Q 185.742 54.037 185.625 55.841 A 118.802 118.802 0 0 1 185.62 55.908 A 138.904 138.904 0 0 1 185.48 57.831 A 170.62 170.62 0 0 1 185.303 59.888 A 404.549 404.549 0 0 0 184.937 64.112 A 251.754 251.754 0 0 1 184.853 65.119 Q 184.731 66.542 184.623 67.593 A 85.426 85.426 0 0 1 184.619 67.627 A 92.616 92.616 0 0 1 185.462 65.937 A 124.703 124.703 0 0 1 186.426 64.087 A 96.816 96.816 0 0 1 188.623 60.181 Q 189.795 58.203 191.089 56.25 A 49.41 49.41 0 0 1 193.799 52.539 A 13.101 13.101 0 0 1 194.865 51.391 Q 195.449 50.837 196.038 50.443 A 6.764 6.764 0 0 1 196.656 50.073 A 7.456 7.456 0 0 1 197.798 49.583 Q 198.612 49.317 199.366 49.317 A 5.477 5.477 0 0 1 200.89 49.516 A 3.895 3.895 0 0 1 203.125 51.172 A 7.198 7.198 0 0 1 204.145 53.685 A 10.163 10.163 0 0 1 204.346 55.762 A 13.825 13.825 0 0 1 204.336 56.276 Q 204.319 56.735 204.273 57.3 A 183.804 183.804 0 0 0 204.2 58.234 A 222.015 222.015 0 0 0 204.126 59.229 Q 204.053 60.254 203.98 61.304 A 30.58 30.58 0 0 0 203.917 62.569 A 25.291 25.291 0 0 0 203.907 63.281 A 20.51 20.51 0 0 0 203.975 64.984 A 18.19 18.19 0 0 0 204.029 65.528 A 8.039 8.039 0 0 0 204.191 66.476 Q 204.309 66.972 204.487 67.394 A 4.959 4.959 0 0 0 204.492 67.407 A 3.23 3.23 0 0 0 204.953 68.186 A 2.752 2.752 0 0 0 205.469 68.677 A 2.281 2.281 0 0 0 206.254 69.039 Q 206.575 69.122 206.952 69.137 A 4.312 4.312 0 0 0 207.129 69.141 A 5.055 5.055 0 0 0 209.465 68.551 A 7.27 7.27 0 0 0 210.742 67.7 A 19.257 19.257 0 0 0 213.416 65.012 A 22.122 22.122 0 0 0 213.99 64.282 A 31.435 31.435 0 0 0 216.368 60.638 A 28.781 28.781 0 0 0 216.577 60.254 A 70.342 70.342 0 0 0 217.209 59.049 Q 217.802 57.889 218.163 57.051 A 18.709 18.709 0 0 0 218.213 56.934 A 1.967 1.967 0 0 1 218.589 56.373 A 1.794 1.794 0 0 1 218.921 56.104 Q 219.385 55.811 219.922 55.811 A 1.827 1.827 0 0 1 220.599 55.932 A 1.66 1.66 0 0 1 221.265 56.421 Q 221.778 57.031 221.778 57.715 A 1.686 1.686 0 0 1 221.673 58.292 A 1.983 1.983 0 0 1 221.631 58.399 A 32.203 32.203 0 0 0 221.527 58.609 Q 221.308 59.056 220.85 60.01 A 25.99 25.99 0 0 1 220.359 60.977 Q 219.907 61.826 219.312 62.818 A 46.249 46.249 0 0 1 218.14 64.665 A 59.404 59.404 0 0 1 217.09 66.187 A 22.481 22.481 0 0 1 214.283 69.434 Q 212.744 70.899 210.962 71.875 A 7.666 7.666 0 0 1 207.227 72.852 A 9.233 9.233 0 0 1 205.755 72.741 Q 204.966 72.614 204.32 72.339 A 4.755 4.755 0 0 1 203.662 71.997 A 6.178 6.178 0 0 1 201.514 69.751 A 9.084 9.084 0 0 1 200.519 66.988 A 10.359 10.359 0 0 1 200.464 66.675 Q 200.196 64.99 200.196 63.281 A 17.57 17.57 0 0 1 200.212 62.552 Q 200.228 62.169 200.259 61.744 A 29.429 29.429 0 0 1 200.269 61.621 A 47.176 47.176 0 0 1 200.393 60.3 A 55.079 55.079 0 0 1 200.464 59.668 A 43.66 43.66 0 0 0 200.659 57.617 Q 200.733 56.592 200.733 55.664 A 7.859 7.859 0 0 0 200.704 54.966 Q 200.614 53.966 200.244 53.54 Q 199.852 53.089 199.523 53.001 A 0.604 0.604 0 0 0 199.366 52.979 A 1.68 1.68 0 0 0 198.762 53.101 Q 198.271 53.29 197.709 53.772 A 6.58 6.58 0 0 0 197.583 53.882 A 12.724 12.724 0 0 0 196.721 54.744 Q 196.307 55.197 195.877 55.739 A 24.016 24.016 0 0 0 195.484 56.25 A 42.932 42.932 0 0 0 194.232 58.014 A 54.992 54.992 0 0 0 193.238 59.546 A 78.485 78.485 0 0 0 191.089 63.184 A 173.607 173.607 0 0 0 190.125 64.948 A 146.644 146.644 0 0 0 189.234 66.626 Q 188.379 68.262 187.891 69.336 Q 187.053 71.096 186.215 71.867 A 3.084 3.084 0 0 1 185.938 72.095 A 4.01 4.01 0 0 1 185.082 72.576 A 3.049 3.049 0 0 1 183.936 72.803 A 3.803 3.803 0 0 1 182.934 72.678 A 2.802 2.802 0 0 1 181.665 71.948 A 2.784 2.784 0 0 1 180.952 70.684 Q 180.811 70.166 180.811 69.531 A 4.221 4.221 0 0 1 180.816 69.35 Q 180.832 68.971 180.909 68.189 A 234.248 234.248 0 0 1 180.989 67.383 Q 181.025 67.024 181.066 66.628 A 446.074 446.074 0 0 1 181.153 65.796 Q 181.299 64.405 181.446 62.793 A 2315.694 2315.694 0 0 1 181.739 59.595 A 160.53 160.53 0 0 0 181.873 58.063 A 128.07 128.07 0 0 0 181.983 56.641 Q 182.08 55.274 182.08 54.346 A 27.686 27.686 0 0 0 182.016 52.427 A 24.573 24.573 0 0 0 181.983 52.002 A 7.299 7.299 0 0 0 181.933 51.568 Q 181.823 50.828 181.592 50.635 A 0.745 0.745 0 0 0 181.372 50.769 Q 180.919 51.137 180.059 52.422 A 28.325 28.325 0 0 0 180.03 52.466 A 14.065 14.065 0 0 0 179.428 53.469 Q 178.467 55.213 177.149 58.399 Z M 314.991 72.705 Q 316.7 70.996 318.457 69.214 Q 320.215 67.432 321.875 65.479 A 47.164 47.164 0 0 0 324.976 61.402 Q 326.416 59.278 327.539 56.885 A 2.021 2.021 0 0 1 327.811 56.44 A 1.619 1.619 0 0 1 328.223 56.079 A 1.836 1.836 0 0 1 329.2 55.811 A 1.906 1.906 0 0 1 329.854 55.919 A 1.655 1.655 0 0 1 330.542 56.397 Q 331.055 56.983 331.055 57.715 A 1.839 1.839 0 0 1 330.909 58.447 A 35.715 35.715 0 0 1 328.041 63.421 A 32.41 32.41 0 0 1 327.442 64.258 A 65.199 65.199 0 0 1 323.34 69.263 A 146.711 146.711 0 0 1 318.994 73.853 Q 316.797 76.074 314.795 78.321 A 58.308 58.308 0 0 0 314.698 81.696 A 58.943 58.943 0 0 0 314.795 85.083 A 117.817 117.817 0 0 1 314.963 89.487 A 139.623 139.623 0 0 1 314.991 92.285 A 100.171 100.171 0 0 1 314.795 98.535 Q 314.6 101.66 314.16 104.517 Q 313.721 107.373 312.964 109.864 A 19.905 19.905 0 0 1 312.104 112.189 A 15.153 15.153 0 0 1 311.035 114.185 A 10.817 10.817 0 0 1 309.68 115.91 A 8.693 8.693 0 0 1 308.301 117.066 A 6.18 6.18 0 0 1 305.439 118.075 A 7.818 7.818 0 0 1 304.639 118.115 A 8.015 8.015 0 0 1 302.401 117.82 A 5.885 5.885 0 0 1 299.317 115.723 Q 297.461 113.33 297.461 109.033 A 24.485 24.485 0 0 1 297.642 106.13 A 30.899 30.899 0 0 1 297.974 104.004 Q 298.487 101.319 299.414 98.462 A 60.146 60.146 0 0 1 301.318 93.407 A 66.336 66.336 0 0 1 301.636 92.676 A 77.417 77.417 0 0 1 304.444 86.963 Q 305.957 84.18 307.666 81.665 A 54.98 54.98 0 0 1 309.822 78.703 A 46.021 46.021 0 0 1 311.133 77.1 A 690.766 690.766 0 0 1 311.293 73.488 A 767.329 767.329 0 0 1 311.353 72.241 A 269.22 269.22 0 0 1 311.481 69.818 A 213.031 213.031 0 0 1 311.621 67.578 A 11.957 11.957 0 0 1 309.848 69.989 A 10.304 10.304 0 0 1 308.472 71.192 A 6.862 6.862 0 0 1 304.346 72.559 A 8.87 8.87 0 0 1 301.814 72.216 A 6.692 6.692 0 0 1 298.535 70.069 Q 296.682 67.87 296.465 64.226 A 16.695 16.695 0 0 1 296.436 63.233 A 28.7 28.7 0 0 1 296.608 60.019 A 22.275 22.275 0 0 1 297.046 57.447 A 47.404 47.404 0 0 1 297.518 55.59 Q 297.796 54.586 298.092 53.717 A 25.358 25.358 0 0 1 298.365 52.954 Q 299.073 51.074 299.659 50.073 A 90.027 90.027 0 0 1 299.79 49.85 Q 300.22 49.119 300.243 49.119 A 0.002 0.002 0 0 1 300.244 49.121 A 1.895 1.895 0 0 1 300.731 48.599 Q 301.123 48.32 301.648 48.294 A 2.213 2.213 0 0 1 301.758 48.291 A 1.991 1.991 0 0 1 302.397 48.389 A 1.657 1.657 0 0 1 303.101 48.853 Q 303.614 49.414 303.614 50.147 A 1.722 1.722 0 0 1 303.321 51.123 Q 303.367 51.077 302.902 51.854 A 109.551 109.551 0 0 1 302.857 51.929 A 8.884 8.884 0 0 0 302.527 52.537 Q 302.206 53.181 301.851 54.09 A 31.535 31.535 0 0 0 301.734 54.395 A 23.016 23.016 0 0 0 301.227 55.897 Q 300.984 56.702 300.759 57.622 A 42.441 42.441 0 0 0 300.611 58.252 A 20.19 20.19 0 0 0 300.183 61.074 A 25.487 25.487 0 0 0 300.098 63.184 Q 300.098 64.946 300.519 66.204 A 5.215 5.215 0 0 0 301.075 67.383 A 3.179 3.179 0 0 0 303.197 68.796 A 5.182 5.182 0 0 0 304.248 68.897 A 4.01 4.01 0 0 0 306.66 68.05 Q 308.049 67.027 309.278 64.771 Q 311.323 61.013 312.802 54.157 A 86.552 86.552 0 0 0 313.086 52.783 A 1.669 1.669 0 0 1 313.672 51.734 Q 314.16 51.319 314.844 51.319 A 1.872 1.872 0 0 1 315.62 51.477 A 1.819 1.819 0 0 1 316.162 51.856 A 1.789 1.789 0 0 1 316.699 53.15 A 2.255 2.255 0 0 1 316.7 53.174 A 0.895 0.895 0 0 1 316.696 53.233 Q 316.675 53.519 316.504 54.907 A 116.485 116.485 0 0 0 316.402 55.767 Q 316.264 56.958 316.096 58.587 A 393.526 393.526 0 0 0 316.04 59.131 A 276.263 276.263 0 0 0 315.801 61.602 Q 315.644 63.295 315.479 65.259 Q 315.186 68.75 314.991 72.705 Z M 106.604 65.937 A 92.616 92.616 0 0 0 105.762 67.627 A 85.426 85.426 0 0 0 105.766 67.593 Q 105.874 66.542 105.995 65.119 A 251.754 251.754 0 0 0 106.079 64.112 A 404.549 404.549 0 0 1 106.446 59.888 A 170.62 170.62 0 0 0 106.623 57.831 A 138.904 138.904 0 0 0 106.763 55.908 A 118.802 118.802 0 0 0 106.767 55.841 Q 106.885 54.037 106.885 53.174 Q 106.885 52.002 106.665 50.879 A 9.025 9.025 0 0 0 106.54 50.33 A 7.701 7.701 0 0 0 105.982 48.828 A 4.671 4.671 0 0 0 105.876 48.63 A 3.938 3.938 0 0 0 104.737 47.339 A 2.882 2.882 0 0 0 103.75 46.885 A 3.74 3.74 0 0 0 102.832 46.778 Q 101.419 46.778 99.992 48.136 A 10.22 10.22 0 0 0 98.999 49.243 Q 97.643 50.977 96.154 54.075 A 62.985 62.985 0 0 0 94.873 56.934 A 2.484 2.484 0 0 0 94.771 57.278 A 1.828 1.828 0 0 0 94.727 57.666 A 1.914 1.914 0 0 0 95.215 58.96 A 1.563 1.563 0 0 0 95.937 59.436 A 1.977 1.977 0 0 0 96.534 59.522 A 1.914 1.914 0 0 0 96.84 59.497 A 2.016 2.016 0 0 0 97.559 59.229 A 1.821 1.821 0 0 0 98.291 58.399 Q 99.61 55.213 100.571 53.469 A 14.065 14.065 0 0 1 101.172 52.466 A 28.325 28.325 0 0 1 101.201 52.422 Q 102.062 51.137 102.514 50.769 A 0.745 0.745 0 0 1 102.735 50.635 Q 102.966 50.828 103.075 51.568 A 7.299 7.299 0 0 1 103.125 52.002 A 24.573 24.573 0 0 1 103.158 52.427 A 27.686 27.686 0 0 1 103.223 54.346 Q 103.223 55.274 103.125 56.641 A 128.07 128.07 0 0 1 103.015 58.063 A 160.53 160.53 0 0 1 102.881 59.595 A 2315.694 2315.694 0 0 0 102.588 62.793 Q 102.442 64.405 102.295 65.796 A 446.074 446.074 0 0 0 102.208 66.628 Q 102.167 67.024 102.131 67.383 A 234.248 234.248 0 0 0 102.051 68.189 Q 101.975 68.971 101.958 69.35 A 4.221 4.221 0 0 0 101.953 69.531 Q 101.953 70.166 102.094 70.684 A 2.784 2.784 0 0 0 102.808 71.948 A 2.802 2.802 0 0 0 104.077 72.678 A 3.803 3.803 0 0 0 105.078 72.803 A 3.049 3.049 0 0 0 106.224 72.576 A 4.01 4.01 0 0 0 107.08 72.095 A 3.084 3.084 0 0 0 107.357 71.867 Q 108.195 71.096 109.034 69.336 Q 109.522 68.262 110.376 66.626 A 146.644 146.644 0 0 1 111.267 64.948 A 173.607 173.607 0 0 1 112.232 63.184 A 78.485 78.485 0 0 1 114.38 59.546 A 54.992 54.992 0 0 1 115.375 58.014 A 42.932 42.932 0 0 1 116.626 56.25 A 24.016 24.016 0 0 1 117.02 55.739 Q 117.45 55.197 117.864 54.744 A 12.724 12.724 0 0 1 118.726 53.882 A 6.58 6.58 0 0 1 118.851 53.772 Q 119.414 53.29 119.905 53.101 A 1.68 1.68 0 0 1 120.508 52.979 A 0.604 0.604 0 0 1 120.666 53.001 Q 120.995 53.089 121.387 53.54 Q 121.757 53.966 121.847 54.966 A 7.859 7.859 0 0 1 121.875 55.664 Q 121.875 56.592 121.802 57.617 A 43.66 43.66 0 0 1 121.607 59.668 A 55.079 55.079 0 0 0 121.535 60.3 A 47.176 47.176 0 0 0 121.411 61.621 A 29.429 29.429 0 0 0 121.402 61.744 Q 121.37 62.169 121.354 62.552 A 17.57 17.57 0 0 0 121.338 63.281 Q 121.338 64.99 121.607 66.675 A 10.359 10.359 0 0 0 121.662 66.988 A 9.084 9.084 0 0 0 122.657 69.751 A 6.178 6.178 0 0 0 124.805 71.997 A 4.755 4.755 0 0 0 125.463 72.339 Q 126.109 72.614 126.897 72.741 A 9.233 9.233 0 0 0 128.369 72.852 A 7.666 7.666 0 0 0 132.105 71.875 Q 133.887 70.899 135.425 69.434 A 22.481 22.481 0 0 0 138.233 66.187 A 59.404 59.404 0 0 0 139.283 64.665 A 46.249 46.249 0 0 0 140.454 62.818 Q 141.05 61.826 141.502 60.977 A 25.99 25.99 0 0 0 141.992 60.01 Q 142.45 59.056 142.67 58.609 A 32.203 32.203 0 0 1 142.774 58.399 A 1.983 1.983 0 0 0 142.816 58.292 A 1.686 1.686 0 0 0 142.92 57.715 Q 142.92 57.031 142.408 56.421 A 1.66 1.66 0 0 0 141.741 55.932 A 1.827 1.827 0 0 0 141.065 55.811 Q 140.528 55.811 140.064 56.104 A 1.794 1.794 0 0 0 139.732 56.373 A 1.967 1.967 0 0 0 139.356 56.934 A 18.709 18.709 0 0 1 139.306 57.051 Q 138.944 57.889 138.352 59.049 A 70.342 70.342 0 0 1 137.72 60.254 A 28.781 28.781 0 0 1 137.511 60.638 A 31.435 31.435 0 0 1 135.132 64.282 A 22.122 22.122 0 0 1 134.558 65.012 A 19.257 19.257 0 0 1 131.885 67.7 A 7.27 7.27 0 0 1 130.607 68.551 A 5.055 5.055 0 0 1 128.272 69.141 A 4.312 4.312 0 0 1 128.095 69.137 Q 127.717 69.122 127.396 69.039 A 2.281 2.281 0 0 1 126.612 68.677 A 2.752 2.752 0 0 1 126.096 68.186 A 3.23 3.23 0 0 1 125.635 67.407 A 4.959 4.959 0 0 1 125.629 67.394 Q 125.452 66.972 125.334 66.476 A 8.039 8.039 0 0 1 125.171 65.528 A 18.19 18.19 0 0 1 125.118 64.984 A 20.51 20.51 0 0 1 125.049 63.281 A 25.291 25.291 0 0 1 125.059 62.569 A 30.58 30.58 0 0 1 125.122 61.304 Q 125.196 60.254 125.269 59.229 A 222.015 222.015 0 0 1 125.342 58.234 A 183.804 183.804 0 0 1 125.415 57.3 Q 125.461 56.735 125.478 56.276 A 13.825 13.825 0 0 0 125.489 55.762 A 10.163 10.163 0 0 0 125.287 53.685 A 7.198 7.198 0 0 0 124.268 51.172 A 3.895 3.895 0 0 0 122.032 49.516 A 5.477 5.477 0 0 0 120.508 49.317 Q 119.754 49.317 118.94 49.583 A 7.456 7.456 0 0 0 117.798 50.073 A 6.764 6.764 0 0 0 117.18 50.443 Q 116.592 50.837 116.007 51.391 A 13.101 13.101 0 0 0 114.942 52.539 A 49.41 49.41 0 0 0 112.232 56.25 Q 110.938 58.203 109.766 60.181 A 96.816 96.816 0 0 0 107.569 64.087 A 124.703 124.703 0 0 0 106.604 65.937 Z M 299.706 59.397 A 60.662 60.662 0 0 0 300.147 58.496 A 4.736 4.736 0 0 0 300.183 58.404 Q 300.287 58.126 300.323 57.917 A 1.198 1.198 0 0 0 300.342 57.715 Q 300.342 56.983 299.829 56.397 A 1.655 1.655 0 0 0 299.141 55.919 A 1.906 1.906 0 0 0 298.487 55.811 A 1.836 1.836 0 0 0 297.51 56.079 Q 297.071 56.348 296.826 56.836 Q 296.192 58.155 295.044 60.327 Q 293.897 62.5 292.383 64.6 Q 290.869 66.699 289.063 68.238 A 7.408 7.408 0 0 1 287.803 69.113 A 5.176 5.176 0 0 1 285.303 69.776 A 4.413 4.413 0 0 1 283.056 69.167 Q 282.244 68.697 281.517 67.864 A 10.387 10.387 0 0 1 280.371 66.236 A 20.698 20.698 0 0 1 279.06 63.487 Q 277.901 60.564 277.1 56.494 A 153.76 153.76 0 0 0 282.227 46.265 A 106.787 106.787 0 0 0 286.377 35.742 A 85.296 85.296 0 0 0 289.16 25.269 A 57.914 57.914 0 0 0 289.509 23.33 A 50.876 50.876 0 0 0 290.186 15.186 A 57.237 57.237 0 0 0 290.158 13.363 Q 290.069 10.576 289.698 8.496 Q 289.4 6.83 288.957 5.545 A 11.324 11.324 0 0 0 288.33 4.053 A 8.881 8.881 0 0 0 288.215 3.835 Q 287.368 2.295 286.158 1.587 Q 284.864 0.83 283.252 0.83 A 4.654 4.654 0 0 0 280.965 1.419 A 5.907 5.907 0 0 0 279.59 2.49 A 10.594 10.594 0 0 0 279.059 3.082 Q 278.393 3.879 277.795 4.893 A 19.784 19.784 0 0 0 276.734 6.983 A 28.538 28.538 0 0 0 276.57 7.363 Q 276.002 8.708 275.507 10.254 A 46.79 46.79 0 0 0 274.585 13.574 A 75.251 75.251 0 0 0 274.153 15.482 A 86.399 86.399 0 0 0 273.096 21.533 Q 272.51 25.733 272.242 30.127 A 150.927 150.927 0 0 0 272.124 32.306 A 135.734 135.734 0 0 0 271.973 38.623 A 99.777 99.777 0 0 0 271.976 39.436 Q 271.986 40.68 272.027 42.072 A 174.499 174.499 0 0 0 272.144 45.117 A 88.673 88.673 0 0 0 272.192 46.036 A 97.72 97.72 0 0 0 272.803 52.661 Q 273.291 56.543 274.195 60.279 A 36.264 36.264 0 0 0 275.021 63.181 A 28.449 28.449 0 0 0 276.563 66.944 A 17.71 17.71 0 0 0 277.804 69.061 A 13.575 13.575 0 0 0 280.127 71.68 A 7.323 7.323 0 0 0 282.239 72.962 A 7.919 7.919 0 0 0 285.157 73.487 A 8.213 8.213 0 0 0 288.745 72.681 A 13.31 13.31 0 0 0 288.857 72.627 A 14.157 14.157 0 0 0 291.919 70.581 A 20.582 20.582 0 0 0 294.678 67.652 A 41.023 41.023 0 0 0 294.836 67.447 A 37.44 37.44 0 0 0 296.973 64.356 A 58.183 58.183 0 0 0 297.711 63.128 A 48.871 48.871 0 0 0 298.804 61.157 A 116.087 116.087 0 0 0 299.281 60.237 Q 299.507 59.797 299.706 59.397 Z M 236.428 61.889 A 30.774 30.774 0 0 0 238.037 56.641 A 15.26 15.26 0 0 0 238.493 57.401 A 17.663 17.663 0 0 0 239.698 59.058 Q 240.674 60.254 241.87 61.206 Q 243.067 62.158 244.532 62.769 A 7.683 7.683 0 0 0 245.303 63.043 A 8.409 8.409 0 0 0 247.705 63.379 A 7.773 7.773 0 0 0 248.508 63.339 A 6.354 6.354 0 0 0 250.367 62.866 A 8.651 8.651 0 0 0 250.945 62.593 A 7.308 7.308 0 0 0 252.442 61.572 A 9.112 9.112 0 0 0 252.96 61.075 A 7.543 7.543 0 0 0 253.882 59.912 A 16.15 16.15 0 0 0 254.131 59.511 Q 254.325 59.186 254.479 58.89 A 8.032 8.032 0 0 0 254.737 58.35 A 1.983 1.983 0 0 0 254.779 58.243 A 1.686 1.686 0 0 0 254.883 57.666 A 1.78 1.78 0 0 0 254.745 56.966 A 1.967 1.967 0 0 0 254.346 56.372 A 2.109 2.109 0 0 0 254.312 56.338 A 1.75 1.75 0 0 0 253.028 55.811 A 1.816 1.816 0 0 0 251.978 56.128 A 1.722 1.722 0 0 0 251.319 56.983 A 0.129 0.129 0 0 1 251.311 57.015 Q 251.277 57.115 251.099 57.471 Q 250.879 57.91 250.44 58.399 A 3.926 3.926 0 0 1 249.939 58.863 A 5.171 5.171 0 0 1 249.317 59.278 A 2.857 2.857 0 0 1 248.521 59.582 A 3.71 3.71 0 0 1 247.705 59.668 A 6.441 6.441 0 0 1 247.388 59.66 A 5.257 5.257 0 0 1 244.678 58.789 A 9.779 9.779 0 0 1 242.359 56.616 Q 241.358 55.322 240.65 53.809 A 37.965 37.965 0 0 1 240.003 52.35 A 28.328 28.328 0 0 1 239.478 51.001 Q 239.159 50.112 238.967 49.441 A 12.263 12.263 0 0 1 238.819 48.877 A 121.75 121.75 0 0 0 238.801 48.802 Q 238.634 48.093 238.624 48.093 A 0.007 0.007 0 0 0 238.623 48.096 A 2.235 2.235 0 0 0 238.592 47.969 A 1.735 1.735 0 0 0 237.964 47.022 A 1.847 1.847 0 0 0 236.817 46.631 A 2.324 2.324 0 0 0 236.658 46.636 A 1.698 1.698 0 0 0 235.474 47.193 A 1.897 1.897 0 0 0 235.072 47.871 A 2.216 2.216 0 0 0 234.961 48.584 A 18.121 18.121 0 0 0 234.986 49.536 A 18.121 18.121 0 0 1 235.01 50.489 Q 235.01 52.881 234.546 55.2 A 32.909 32.909 0 0 1 234.426 55.776 A 29.567 29.567 0 0 1 233.326 59.595 A 37.58 37.58 0 0 1 232.838 60.861 A 31.784 31.784 0 0 1 231.665 63.428 Q 231.157 64.417 230.665 65.251 A 24.173 24.173 0 0 1 229.908 66.455 A 18.846 18.846 0 0 1 229.48 67.065 Q 229.172 67.486 228.878 67.832 A 8.791 8.791 0 0 1 228.296 68.457 Q 227.74 68.995 227.382 69.138 A 0.639 0.639 0 0 1 227.149 69.19 A 0.948 0.948 0 0 1 226.768 69.099 Q 226.291 68.889 225.659 68.189 Q 224.756 67.188 223.926 65.43 A 15.371 15.371 0 0 1 223.754 65.052 Q 223.386 64.215 223.07 63.236 A 27.024 27.024 0 0 1 222.51 61.231 Q 221.924 58.789 221.924 55.908 A 27.07 27.07 0 0 1 221.934 55.174 Q 221.967 53.944 222.117 53.079 A 6.26 6.26 0 0 1 222.315 52.246 Q 222.657 51.178 222.737 50.97 A 0.539 0.539 0 0 1 222.754 50.928 A 1.283 1.283 0 0 0 222.761 50.916 Q 222.95 50.577 222.95 50.098 A 1.772 1.772 0 0 0 222.819 49.425 A 2.045 2.045 0 0 0 222.461 48.853 A 1.563 1.563 0 0 0 221.739 48.377 A 1.977 1.977 0 0 0 221.143 48.291 A 2.201 2.201 0 0 0 220.914 48.303 A 1.771 1.771 0 0 0 220.191 48.535 A 1.776 1.776 0 0 0 219.532 49.219 A 0.848 0.848 0 0 0 219.498 49.282 Q 219.329 49.63 218.824 51.123 Q 218.262 52.783 218.262 56.006 A 27.044 27.044 0 0 0 218.353 58.242 A 22.485 22.485 0 0 0 219.19 62.793 A 26.651 26.651 0 0 0 220.161 65.535 A 19.618 19.618 0 0 0 221.509 68.189 A 20.499 20.499 0 0 0 221.928 68.845 Q 222.512 69.721 223.121 70.426 A 11.013 11.013 0 0 0 224.439 71.729 A 7.938 7.938 0 0 0 225.274 72.337 Q 226.33 72.998 227.246 72.998 A 2.447 2.447 0 0 0 227.502 72.962 Q 228.543 72.759 229.932 71.631 A 11.787 11.787 0 0 0 230.424 71.208 Q 231.104 70.59 231.779 69.796 A 21.949 21.949 0 0 0 233.033 68.164 A 29.016 29.016 0 0 0 234.528 65.778 A 38.829 38.829 0 0 0 235.938 63.013 A 27.882 27.882 0 0 0 236.428 61.889 Z M 251.416 62.305 Q 251.416 55.274 252.295 48.291 Q 252.393 47.608 252.906 47.095 A 1.725 1.725 0 0 1 253.918 46.604 A 2.399 2.399 0 0 1 254.248 46.582 A 1.54 1.54 0 0 1 255.399 47.068 A 1.932 1.932 0 0 1 255.469 47.144 A 1.914 1.914 0 0 1 255.957 48.438 A 3.592 3.592 0 0 1 255.953 48.589 Q 255.934 49.005 255.835 50.196 Q 255.751 51.203 255.644 52.475 A 4937.162 4937.162 0 0 1 255.542 53.687 Q 255.371 55.713 255.249 57.984 A 89.207 89.207 0 0 0 255.158 60.163 A 68.393 68.393 0 0 0 255.127 62.158 A 21.689 21.689 0 0 0 255.177 63.678 Q 255.232 64.46 255.348 65.124 A 8.927 8.927 0 0 0 255.64 66.333 A 9.227 9.227 0 0 0 256.056 67.403 Q 256.448 68.243 256.958 68.799 A 5.069 5.069 0 0 0 257.629 69.416 Q 258.068 69.749 258.534 69.924 A 3.105 3.105 0 0 0 258.667 69.971 A 6.132 6.132 0 0 0 259.687 70.212 A 5.017 5.017 0 0 0 260.401 70.264 A 4.304 4.304 0 0 0 261.903 69.98 Q 262.455 69.775 263.022 69.423 A 7.868 7.868 0 0 0 263.233 69.287 A 12.258 12.258 0 0 0 264.528 68.283 Q 265.37 67.542 266.236 66.553 Q 267.725 64.851 269.237 62.485 A 47.112 47.112 0 0 0 269.336 62.329 A 57.077 57.077 0 0 0 271.175 59.203 A 71.218 71.218 0 0 0 272.412 56.836 Q 272.657 56.348 273.096 56.079 A 1.836 1.836 0 0 1 274.073 55.811 A 1.698 1.698 0 0 1 274.827 55.976 A 1.715 1.715 0 0 1 275.367 56.397 A 2.213 2.213 0 0 1 275.712 56.918 A 1.752 1.752 0 0 1 275.879 57.666 Q 275.879 58.146 275.691 58.484 A 1.283 1.283 0 0 1 275.684 58.496 A 120.518 120.518 0 0 1 275.203 59.407 Q 274.768 60.224 274.219 61.231 Q 273.34 62.842 272.217 64.551 A 45.815 45.815 0 0 1 269.751 67.945 A 24.386 24.386 0 0 1 267.177 70.717 A 22.341 22.341 0 0 1 266.895 70.972 A 15.182 15.182 0 0 1 264.567 72.683 A 13.449 13.449 0 0 1 263.721 73.145 A 7.812 7.812 0 0 1 261.521 73.877 A 7.019 7.019 0 0 1 260.352 73.975 A 8.808 8.808 0 0 1 258.296 73.745 A 7.029 7.029 0 0 1 256.494 73.047 Q 254.834 72.119 253.687 70.557 A 10.239 10.239 0 0 1 252.363 68.082 A 12.594 12.594 0 0 1 251.978 66.87 A 17.067 17.067 0 0 1 251.456 63.58 A 20.182 20.182 0 0 1 251.416 62.305 Z M 275.684 38.867 A 121.998 121.998 0 0 0 275.766 43.418 A 108.129 108.129 0 0 0 275.83 44.873 Q 275.977 47.754 276.221 50.391 A 106.366 106.366 0 0 0 279.187 44.17 A 120.375 120.375 0 0 0 280.127 41.968 A 103.429 103.429 0 0 0 283.399 32.935 Q 284.815 28.369 285.669 23.853 A 49.23 49.23 0 0 0 286.423 18.103 A 41.551 41.551 0 0 0 286.524 15.235 Q 286.524 10.802 285.975 8.306 A 9.91 9.91 0 0 0 285.596 6.983 A 7.386 7.386 0 0 0 285.16 6.012 Q 284.544 4.888 283.715 4.596 A 1.815 1.815 0 0 0 283.106 4.492 Q 282.116 4.492 281.195 5.811 A 6.608 6.608 0 0 0 281.128 5.908 A 11.087 11.087 0 0 0 280.445 7.087 Q 280.122 7.725 279.815 8.493 A 25.597 25.597 0 0 0 279.346 9.766 A 38.309 38.309 0 0 0 278.648 12.07 Q 278.217 13.66 277.832 15.528 A 82.5 82.5 0 0 0 277.064 19.869 A 99.273 99.273 0 0 0 276.685 22.656 A 137.207 137.207 0 0 0 276.099 28.562 A 154.776 154.776 0 0 0 275.952 30.615 A 127.769 127.769 0 0 0 275.684 38.867 Z M 36.914 58.936 Q 34.815 57.91 32.495 56.909 A 52.008 52.008 0 0 0 27.735 55.127 A 39.452 39.452 0 0 0 22.73 53.882 Q 20.166 53.418 17.627 53.418 A 24.239 24.239 0 0 0 13.828 53.707 A 21.01 21.01 0 0 0 12.207 54.029 A 17.028 17.028 0 0 0 9.689 54.836 A 13.467 13.467 0 0 0 7.764 55.811 A 10.28 10.28 0 0 0 5.831 57.329 A 8.668 8.668 0 0 0 4.761 58.643 Q 3.662 60.303 3.662 62.403 A 6.573 6.573 0 0 0 3.907 64.228 A 5.475 5.475 0 0 0 4.639 65.796 A 7.716 7.716 0 0 0 6.756 67.879 A 9.146 9.146 0 0 0 7.251 68.189 A 11.835 11.835 0 0 0 9.496 69.188 A 14.944 14.944 0 0 0 11.035 69.605 A 21.035 21.035 0 0 0 15.09 70.065 A 23.41 23.41 0 0 0 15.528 70.069 Q 18.36 70.069 21.387 69.605 A 23.248 23.248 0 0 0 27.246 67.896 Q 30.078 66.651 32.569 64.478 A 18.509 18.509 0 0 0 35.434 61.294 A 23.51 23.51 0 0 0 36.914 58.936 Z M 311.084 83.057 A 62.273 62.273 0 0 0 307.056 89.746 A 66.446 66.446 0 0 0 304.244 95.861 A 60.266 60.266 0 0 0 303.907 96.729 Q 302.588 100.196 301.856 103.369 A 32.012 32.012 0 0 0 301.358 105.993 Q 301.171 107.292 301.133 108.451 A 17.756 17.756 0 0 0 301.123 109.033 A 12.643 12.643 0 0 0 301.204 110.513 Q 301.294 111.268 301.481 111.893 A 5.259 5.259 0 0 0 301.953 113.013 A 2.71 2.71 0 0 0 303.896 114.394 A 3.873 3.873 0 0 0 304.59 114.453 A 3.18 3.18 0 0 0 306.59 113.737 Q 307.038 113.387 307.447 112.866 Q 308.351 111.713 309.05 109.852 A 21.106 21.106 0 0 0 309.546 108.35 Q 310.21 106.072 310.624 103.043 A 58.926 58.926 0 0 0 310.84 101.245 A 76.784 76.784 0 0 0 311.17 96.82 A 105.102 105.102 0 0 0 311.28 91.895 Q 311.28 89.795 311.206 87.647 A 297.062 297.062 0 0 1 311.139 85.425 A 359.608 359.608 0 0 1 311.084 83.057 Z M 258.849 35.739 A 4.376 4.376 0 0 0 259.326 33.692 A 4.997 4.997 0 0 0 259.326 33.619 A 4.374 4.374 0 0 0 258.985 31.958 Q 258.643 31.153 258.033 30.542 Q 257.422 29.932 256.617 29.59 Q 255.811 29.248 254.883 29.248 A 4.997 4.997 0 0 0 254.811 29.249 A 4.374 4.374 0 0 0 253.15 29.59 Q 252.344 29.932 251.734 30.542 Q 251.123 31.153 250.782 31.958 Q 250.44 32.764 250.44 33.692 A 5.282 5.282 0 0 0 250.44 33.749 A 4.28 4.28 0 0 0 251.734 36.841 A 4.469 4.469 0 0 0 252.836 37.658 A 4.376 4.376 0 0 0 254.883 38.135 A 5.282 5.282 0 0 0 254.941 38.135 A 4.28 4.28 0 0 0 258.033 36.841 A 4.469 4.469 0 0 0 258.849 35.739 Z M 174.107 56.373 A 1.967 1.967 0 0 0 173.731 56.934 A 2.484 2.484 0 0 0 173.628 57.278 A 1.828 1.828 0 0 0 173.584 57.666 A 1.914 1.914 0 0 0 174.073 58.96 A 1.563 1.563 0 0 0 174.795 59.436 A 1.977 1.977 0 0 0 175.391 59.522 A 1.914 1.914 0 0 0 175.697 59.497 A 2.016 2.016 0 0 0 176.416 59.229 A 1.821 1.821 0 0 0 177.149 58.399 A 1.983 1.983 0 0 0 177.191 58.292 A 1.686 1.686 0 0 0 177.295 57.715 Q 177.295 57.031 176.783 56.421 A 1.66 1.66 0 0 0 176.116 55.932 A 1.827 1.827 0 0 0 175.44 55.811 Q 174.903 55.811 174.439 56.104 A 1.794 1.794 0 0 0 174.107 56.373 Z M 256.592 33.692 A 1.631 1.631 0 0 0 256.112 32.529 A 2.141 2.141 0 0 0 256.079 32.495 A 1.787 1.787 0 0 0 255.552 32.123 A 1.606 1.606 0 0 0 254.883 31.983 Q 254.2 31.983 253.711 32.495 A 1.68 1.68 0 0 0 253.223 33.692 A 1.596 1.596 0 0 0 253.696 34.848 A 1.96 1.96 0 0 0 253.711 34.864 Q 254.2 35.352 254.883 35.352 A 1.68 1.68 0 0 0 256.079 34.864 A 1.66 1.66 0 0 0 256.464 34.326 A 1.566 1.566 0 0 0 256.592 33.692 Z" vector-effect="non-scaling-stroke"/></g></svg>